%TF.GenerationSoftware,KiCad,Pcbnew,9.0.6*%
%TF.CreationDate,2025-11-21T23:30:09+05:30*%
%TF.ProjectId,charger_circuit,63686172-6765-4725-9f63-697263756974,rev?*%
%TF.SameCoordinates,Original*%
%TF.FileFunction,Legend,Top*%
%TF.FilePolarity,Positive*%
%FSLAX46Y46*%
G04 Gerber Fmt 4.6, Leading zero omitted, Abs format (unit mm)*
G04 Created by KiCad (PCBNEW 9.0.6) date 2025-11-21 23:30:09*
%MOMM*%
%LPD*%
G01*
G04 APERTURE LIST*
%ADD10C,0.150000*%
%ADD11C,0.120000*%
G04 APERTURE END LIST*
D10*
X62738095Y-44304819D02*
X62738095Y-45114342D01*
X62738095Y-45114342D02*
X62785714Y-45209580D01*
X62785714Y-45209580D02*
X62833333Y-45257200D01*
X62833333Y-45257200D02*
X62928571Y-45304819D01*
X62928571Y-45304819D02*
X63119047Y-45304819D01*
X63119047Y-45304819D02*
X63214285Y-45257200D01*
X63214285Y-45257200D02*
X63261904Y-45209580D01*
X63261904Y-45209580D02*
X63309523Y-45114342D01*
X63309523Y-45114342D02*
X63309523Y-44304819D01*
X64309523Y-45304819D02*
X63738095Y-45304819D01*
X64023809Y-45304819D02*
X64023809Y-44304819D01*
X64023809Y-44304819D02*
X63928571Y-44447676D01*
X63928571Y-44447676D02*
X63833333Y-44542914D01*
X63833333Y-44542914D02*
X63738095Y-44590533D01*
X75807319Y-40833333D02*
X76521604Y-40833333D01*
X76521604Y-40833333D02*
X76664461Y-40880952D01*
X76664461Y-40880952D02*
X76759700Y-40976190D01*
X76759700Y-40976190D02*
X76807319Y-41119047D01*
X76807319Y-41119047D02*
X76807319Y-41214285D01*
X75902557Y-40404761D02*
X75854938Y-40357142D01*
X75854938Y-40357142D02*
X75807319Y-40261904D01*
X75807319Y-40261904D02*
X75807319Y-40023809D01*
X75807319Y-40023809D02*
X75854938Y-39928571D01*
X75854938Y-39928571D02*
X75902557Y-39880952D01*
X75902557Y-39880952D02*
X75997795Y-39833333D01*
X75997795Y-39833333D02*
X76093033Y-39833333D01*
X76093033Y-39833333D02*
X76235890Y-39880952D01*
X76235890Y-39880952D02*
X76807319Y-40452380D01*
X76807319Y-40452380D02*
X76807319Y-39833333D01*
X48102319Y-41333333D02*
X48816604Y-41333333D01*
X48816604Y-41333333D02*
X48959461Y-41380952D01*
X48959461Y-41380952D02*
X49054700Y-41476190D01*
X49054700Y-41476190D02*
X49102319Y-41619047D01*
X49102319Y-41619047D02*
X49102319Y-41714285D01*
X49102319Y-40333333D02*
X49102319Y-40904761D01*
X49102319Y-40619047D02*
X48102319Y-40619047D01*
X48102319Y-40619047D02*
X48245176Y-40714285D01*
X48245176Y-40714285D02*
X48340414Y-40809523D01*
X48340414Y-40809523D02*
X48388033Y-40904761D01*
X53261905Y-44404819D02*
X53261905Y-43404819D01*
X53261905Y-43404819D02*
X53500000Y-43404819D01*
X53500000Y-43404819D02*
X53642857Y-43452438D01*
X53642857Y-43452438D02*
X53738095Y-43547676D01*
X53738095Y-43547676D02*
X53785714Y-43642914D01*
X53785714Y-43642914D02*
X53833333Y-43833390D01*
X53833333Y-43833390D02*
X53833333Y-43976247D01*
X53833333Y-43976247D02*
X53785714Y-44166723D01*
X53785714Y-44166723D02*
X53738095Y-44261961D01*
X53738095Y-44261961D02*
X53642857Y-44357200D01*
X53642857Y-44357200D02*
X53500000Y-44404819D01*
X53500000Y-44404819D02*
X53261905Y-44404819D01*
X54785714Y-44404819D02*
X54214286Y-44404819D01*
X54500000Y-44404819D02*
X54500000Y-43404819D01*
X54500000Y-43404819D02*
X54404762Y-43547676D01*
X54404762Y-43547676D02*
X54309524Y-43642914D01*
X54309524Y-43642914D02*
X54214286Y-43690533D01*
X67959580Y-40599046D02*
X68007200Y-40646665D01*
X68007200Y-40646665D02*
X68054819Y-40789522D01*
X68054819Y-40789522D02*
X68054819Y-40884760D01*
X68054819Y-40884760D02*
X68007200Y-41027617D01*
X68007200Y-41027617D02*
X67911961Y-41122855D01*
X67911961Y-41122855D02*
X67816723Y-41170474D01*
X67816723Y-41170474D02*
X67626247Y-41218093D01*
X67626247Y-41218093D02*
X67483390Y-41218093D01*
X67483390Y-41218093D02*
X67292914Y-41170474D01*
X67292914Y-41170474D02*
X67197676Y-41122855D01*
X67197676Y-41122855D02*
X67102438Y-41027617D01*
X67102438Y-41027617D02*
X67054819Y-40884760D01*
X67054819Y-40884760D02*
X67054819Y-40789522D01*
X67054819Y-40789522D02*
X67102438Y-40646665D01*
X67102438Y-40646665D02*
X67150057Y-40599046D01*
X67150057Y-40218093D02*
X67102438Y-40170474D01*
X67102438Y-40170474D02*
X67054819Y-40075236D01*
X67054819Y-40075236D02*
X67054819Y-39837141D01*
X67054819Y-39837141D02*
X67102438Y-39741903D01*
X67102438Y-39741903D02*
X67150057Y-39694284D01*
X67150057Y-39694284D02*
X67245295Y-39646665D01*
X67245295Y-39646665D02*
X67340533Y-39646665D01*
X67340533Y-39646665D02*
X67483390Y-39694284D01*
X67483390Y-39694284D02*
X68054819Y-40265712D01*
X68054819Y-40265712D02*
X68054819Y-39646665D01*
X58959580Y-40099046D02*
X59007200Y-40146665D01*
X59007200Y-40146665D02*
X59054819Y-40289522D01*
X59054819Y-40289522D02*
X59054819Y-40384760D01*
X59054819Y-40384760D02*
X59007200Y-40527617D01*
X59007200Y-40527617D02*
X58911961Y-40622855D01*
X58911961Y-40622855D02*
X58816723Y-40670474D01*
X58816723Y-40670474D02*
X58626247Y-40718093D01*
X58626247Y-40718093D02*
X58483390Y-40718093D01*
X58483390Y-40718093D02*
X58292914Y-40670474D01*
X58292914Y-40670474D02*
X58197676Y-40622855D01*
X58197676Y-40622855D02*
X58102438Y-40527617D01*
X58102438Y-40527617D02*
X58054819Y-40384760D01*
X58054819Y-40384760D02*
X58054819Y-40289522D01*
X58054819Y-40289522D02*
X58102438Y-40146665D01*
X58102438Y-40146665D02*
X58150057Y-40099046D01*
X59054819Y-39146665D02*
X59054819Y-39718093D01*
X59054819Y-39432379D02*
X58054819Y-39432379D01*
X58054819Y-39432379D02*
X58197676Y-39527617D01*
X58197676Y-39527617D02*
X58292914Y-39622855D01*
X58292914Y-39622855D02*
X58340533Y-39718093D01*
D11*
%TO.C,U1*%
X58390000Y-45690000D02*
X68610000Y-45690000D01*
X58390000Y-47070000D02*
X68610000Y-47070000D01*
X58390000Y-50310000D02*
X58390000Y-45690000D01*
X61650000Y-45690000D02*
X61650000Y-47070000D01*
X65350000Y-45690000D02*
X65350000Y-47070000D01*
X68610000Y-45690000D02*
X68610000Y-50310000D01*
X68610000Y-50310000D02*
X58390000Y-50310000D01*
%TO.C,J2*%
X77352500Y-45620000D02*
X77352500Y-35380000D01*
X80372500Y-45620000D02*
X80372500Y-35380000D01*
X85272500Y-45620000D02*
X85272500Y-35380000D01*
X86772500Y-45620000D02*
X86772500Y-35380000D01*
X87392500Y-45620000D02*
X77352500Y-45620000D01*
X87392500Y-43300000D02*
X87392500Y-45620000D01*
X77352500Y-35380000D02*
X87392500Y-35380000D01*
X87392500Y-35380000D02*
X87392500Y-42700000D01*
X88002500Y-43440000D02*
X87392500Y-43000000D01*
X88002500Y-42560000D01*
X88002500Y-43440000D01*
G36*
X88002500Y-43440000D02*
G01*
X87392500Y-43000000D01*
X88002500Y-42560000D01*
X88002500Y-43440000D01*
G37*
%TO.C,J1*%
X47647500Y-35880000D02*
X47647500Y-46120000D01*
X44627500Y-35880000D02*
X44627500Y-46120000D01*
X39727500Y-35880000D02*
X39727500Y-46120000D01*
X38227500Y-35880000D02*
X38227500Y-46120000D01*
X37607500Y-35880000D02*
X47647500Y-35880000D01*
X37607500Y-38200000D02*
X37607500Y-35880000D01*
X47647500Y-46120000D02*
X37607500Y-46120000D01*
X37607500Y-46120000D02*
X37607500Y-38800000D01*
X37607500Y-38500000D02*
X36997500Y-38940000D01*
X36997500Y-38060000D01*
X37607500Y-38500000D01*
G36*
X37607500Y-38500000D02*
G01*
X36997500Y-38940000D01*
X36997500Y-38060000D01*
X37607500Y-38500000D01*
G37*
%TO.C,D1*%
X56310000Y-43160000D02*
X51690000Y-43160000D01*
X51690000Y-37840000D02*
X56310000Y-37840000D01*
X56950000Y-41840000D02*
X56610000Y-41370000D01*
X57290000Y-41370000D01*
X56950000Y-41840000D01*
G36*
X56950000Y-41840000D02*
G01*
X56610000Y-41370000D01*
X57290000Y-41370000D01*
X56950000Y-41840000D01*
G37*
%TO.C,C2*%
X70161000Y-43932621D02*
X70161000Y-43302621D01*
X69846000Y-43617621D02*
X70476000Y-43617621D01*
X68770000Y-40432380D02*
X75230000Y-40432380D01*
X68770000Y-40392380D02*
X75230000Y-40392380D01*
X68771000Y-40352380D02*
X75229000Y-40352380D01*
X68772000Y-40312380D02*
X75228000Y-40312380D01*
X68774000Y-40272380D02*
X75226000Y-40272380D01*
X68776000Y-40232380D02*
X75224000Y-40232380D01*
X68779000Y-40192380D02*
X70960000Y-40192380D01*
X73040000Y-40192380D02*
X75221000Y-40192380D01*
X68782000Y-40152380D02*
X70960000Y-40152380D01*
X73040000Y-40152380D02*
X75218000Y-40152380D01*
X68786000Y-40112380D02*
X70960000Y-40112380D01*
X73040000Y-40112380D02*
X75214000Y-40112380D01*
X68790000Y-40072380D02*
X70960000Y-40072380D01*
X73040000Y-40072380D02*
X75210000Y-40072380D01*
X68795000Y-40032380D02*
X70960000Y-40032380D01*
X73040000Y-40032380D02*
X75205000Y-40032380D01*
X68800000Y-39992380D02*
X70960000Y-39992380D01*
X73040000Y-39992380D02*
X75200000Y-39992380D01*
X68805000Y-39952380D02*
X70960000Y-39952380D01*
X73040000Y-39952380D02*
X75195000Y-39952380D01*
X68812000Y-39912380D02*
X70960000Y-39912380D01*
X73040000Y-39912380D02*
X75188000Y-39912380D01*
X68818000Y-39872380D02*
X70960000Y-39872380D01*
X73040000Y-39872380D02*
X75182000Y-39872380D01*
X68826000Y-39832380D02*
X70960000Y-39832380D01*
X73040000Y-39832380D02*
X75174000Y-39832380D01*
X68833000Y-39792380D02*
X70960000Y-39792380D01*
X73040000Y-39792380D02*
X75167000Y-39792380D01*
X68841000Y-39752380D02*
X70960000Y-39752380D01*
X73040000Y-39752380D02*
X75159000Y-39752380D01*
X68850000Y-39712380D02*
X70960000Y-39712380D01*
X73040000Y-39712380D02*
X75150000Y-39712380D01*
X68860000Y-39672380D02*
X70960000Y-39672380D01*
X73040000Y-39672380D02*
X75140000Y-39672380D01*
X68869000Y-39632380D02*
X70960000Y-39632380D01*
X73040000Y-39632380D02*
X75131000Y-39632380D01*
X68880000Y-39592380D02*
X70960000Y-39592380D01*
X73040000Y-39592380D02*
X75120000Y-39592380D01*
X68891000Y-39552380D02*
X70960000Y-39552380D01*
X73040000Y-39552380D02*
X75109000Y-39552380D01*
X68902000Y-39512380D02*
X70960000Y-39512380D01*
X73040000Y-39512380D02*
X75098000Y-39512380D01*
X68914000Y-39472380D02*
X70960000Y-39472380D01*
X73040000Y-39472380D02*
X75086000Y-39472380D01*
X68927000Y-39432380D02*
X70960000Y-39432380D01*
X73040000Y-39432380D02*
X75073000Y-39432380D01*
X68940000Y-39392380D02*
X70960000Y-39392380D01*
X73040000Y-39392380D02*
X75060000Y-39392380D01*
X68953000Y-39352380D02*
X70960000Y-39352380D01*
X73040000Y-39352380D02*
X75047000Y-39352380D01*
X68968000Y-39312380D02*
X70960000Y-39312380D01*
X73040000Y-39312380D02*
X75032000Y-39312380D01*
X68983000Y-39272380D02*
X70960000Y-39272380D01*
X73040000Y-39272380D02*
X75017000Y-39272380D01*
X68998000Y-39232380D02*
X70960000Y-39232380D01*
X73040000Y-39232380D02*
X75002000Y-39232380D01*
X69014000Y-39192380D02*
X70960000Y-39192380D01*
X73040000Y-39192380D02*
X74986000Y-39192380D01*
X69031000Y-39152380D02*
X70960000Y-39152380D01*
X73040000Y-39152380D02*
X74969000Y-39152380D01*
X69048000Y-39112380D02*
X70960000Y-39112380D01*
X73040000Y-39112380D02*
X74952000Y-39112380D01*
X69066000Y-39072380D02*
X70960000Y-39072380D01*
X73040000Y-39072380D02*
X74934000Y-39072380D01*
X69085000Y-39032380D02*
X70960000Y-39032380D01*
X73040000Y-39032380D02*
X74915000Y-39032380D01*
X69104000Y-38992380D02*
X70960000Y-38992380D01*
X73040000Y-38992380D02*
X74896000Y-38992380D01*
X69124000Y-38952380D02*
X70960000Y-38952380D01*
X73040000Y-38952380D02*
X74876000Y-38952380D01*
X69145000Y-38912380D02*
X70960000Y-38912380D01*
X73040000Y-38912380D02*
X74855000Y-38912380D01*
X69166000Y-38872380D02*
X70960000Y-38872380D01*
X73040000Y-38872380D02*
X74834000Y-38872380D01*
X69188000Y-38832380D02*
X70960000Y-38832380D01*
X73040000Y-38832380D02*
X74812000Y-38832380D01*
X69211000Y-38792380D02*
X70960000Y-38792380D01*
X73040000Y-38792380D02*
X74789000Y-38792380D01*
X69235000Y-38752380D02*
X70960000Y-38752380D01*
X73040000Y-38752380D02*
X74765000Y-38752380D01*
X69259000Y-38712380D02*
X70960000Y-38712380D01*
X73040000Y-38712380D02*
X74741000Y-38712380D01*
X69284000Y-38672380D02*
X70960000Y-38672380D01*
X73040000Y-38672380D02*
X74716000Y-38672380D01*
X69310000Y-38632380D02*
X70960000Y-38632380D01*
X73040000Y-38632380D02*
X74690000Y-38632380D01*
X69337000Y-38592380D02*
X70960000Y-38592380D01*
X73040000Y-38592380D02*
X74663000Y-38592380D01*
X69364000Y-38552380D02*
X70960000Y-38552380D01*
X73040000Y-38552380D02*
X74636000Y-38552380D01*
X69393000Y-38512380D02*
X70960000Y-38512380D01*
X73040000Y-38512380D02*
X74607000Y-38512380D01*
X69423000Y-38472380D02*
X70960000Y-38472380D01*
X73040000Y-38472380D02*
X74577000Y-38472380D01*
X69453000Y-38432380D02*
X70960000Y-38432380D01*
X73040000Y-38432380D02*
X74547000Y-38432380D01*
X69484000Y-38392380D02*
X70960000Y-38392380D01*
X73040000Y-38392380D02*
X74516000Y-38392380D01*
X69517000Y-38352380D02*
X70960000Y-38352380D01*
X73040000Y-38352380D02*
X74483000Y-38352380D01*
X69550000Y-38312380D02*
X70960000Y-38312380D01*
X73040000Y-38312380D02*
X74450000Y-38312380D01*
X69585000Y-38272380D02*
X70960000Y-38272380D01*
X73040000Y-38272380D02*
X74415000Y-38272380D01*
X69621000Y-38232380D02*
X70960000Y-38232380D01*
X73040000Y-38232380D02*
X74379000Y-38232380D01*
X69658000Y-38192380D02*
X70960000Y-38192380D01*
X73040000Y-38192380D02*
X74342000Y-38192380D01*
X69696000Y-38152380D02*
X70960000Y-38152380D01*
X73040000Y-38152380D02*
X74304000Y-38152380D01*
X69736000Y-38112380D02*
X74264000Y-38112380D01*
X69777000Y-38072380D02*
X74223000Y-38072380D01*
X69819000Y-38032380D02*
X74181000Y-38032380D01*
X69863000Y-37992380D02*
X74137000Y-37992380D01*
X69909000Y-37952380D02*
X74091000Y-37952380D01*
X69956000Y-37912380D02*
X74044000Y-37912380D01*
X70005000Y-37872380D02*
X73995000Y-37872380D01*
X70057000Y-37832380D02*
X73943000Y-37832380D01*
X70110000Y-37792380D02*
X73890000Y-37792380D01*
X70166000Y-37752380D02*
X73834000Y-37752380D01*
X70225000Y-37712380D02*
X73775000Y-37712380D01*
X70286000Y-37672380D02*
X73714000Y-37672380D01*
X70351000Y-37632380D02*
X73649000Y-37632380D01*
X70419000Y-37592380D02*
X73581000Y-37592380D01*
X70491000Y-37552380D02*
X73509000Y-37552380D01*
X70568000Y-37512380D02*
X73432000Y-37512380D01*
X70650000Y-37472380D02*
X73350000Y-37472380D01*
X70739000Y-37432380D02*
X73261000Y-37432380D01*
X70835000Y-37392380D02*
X73165000Y-37392380D01*
X70942000Y-37352380D02*
X73058000Y-37352380D01*
X71061000Y-37312380D02*
X72939000Y-37312380D01*
X71199000Y-37272380D02*
X72801000Y-37272380D01*
X71367000Y-37232380D02*
X72633000Y-37232380D01*
X71598000Y-37192380D02*
X72402000Y-37192380D01*
X75270000Y-40432380D02*
G75*
G02*
X68730000Y-40432380I-3270000J0D01*
G01*
X68730000Y-40432380D02*
G75*
G02*
X75270000Y-40432380I3270000J0D01*
G01*
%TO.C,C1*%
X61161000Y-43432621D02*
X61161000Y-42802621D01*
X60846000Y-43117621D02*
X61476000Y-43117621D01*
X59770000Y-39932380D02*
X66230000Y-39932380D01*
X59770000Y-39892380D02*
X66230000Y-39892380D01*
X59771000Y-39852380D02*
X66229000Y-39852380D01*
X59772000Y-39812380D02*
X66228000Y-39812380D01*
X59774000Y-39772380D02*
X66226000Y-39772380D01*
X59776000Y-39732380D02*
X66224000Y-39732380D01*
X59779000Y-39692380D02*
X61960000Y-39692380D01*
X64040000Y-39692380D02*
X66221000Y-39692380D01*
X59782000Y-39652380D02*
X61960000Y-39652380D01*
X64040000Y-39652380D02*
X66218000Y-39652380D01*
X59786000Y-39612380D02*
X61960000Y-39612380D01*
X64040000Y-39612380D02*
X66214000Y-39612380D01*
X59790000Y-39572380D02*
X61960000Y-39572380D01*
X64040000Y-39572380D02*
X66210000Y-39572380D01*
X59795000Y-39532380D02*
X61960000Y-39532380D01*
X64040000Y-39532380D02*
X66205000Y-39532380D01*
X59800000Y-39492380D02*
X61960000Y-39492380D01*
X64040000Y-39492380D02*
X66200000Y-39492380D01*
X59805000Y-39452380D02*
X61960000Y-39452380D01*
X64040000Y-39452380D02*
X66195000Y-39452380D01*
X59812000Y-39412380D02*
X61960000Y-39412380D01*
X64040000Y-39412380D02*
X66188000Y-39412380D01*
X59818000Y-39372380D02*
X61960000Y-39372380D01*
X64040000Y-39372380D02*
X66182000Y-39372380D01*
X59826000Y-39332380D02*
X61960000Y-39332380D01*
X64040000Y-39332380D02*
X66174000Y-39332380D01*
X59833000Y-39292380D02*
X61960000Y-39292380D01*
X64040000Y-39292380D02*
X66167000Y-39292380D01*
X59841000Y-39252380D02*
X61960000Y-39252380D01*
X64040000Y-39252380D02*
X66159000Y-39252380D01*
X59850000Y-39212380D02*
X61960000Y-39212380D01*
X64040000Y-39212380D02*
X66150000Y-39212380D01*
X59860000Y-39172380D02*
X61960000Y-39172380D01*
X64040000Y-39172380D02*
X66140000Y-39172380D01*
X59869000Y-39132380D02*
X61960000Y-39132380D01*
X64040000Y-39132380D02*
X66131000Y-39132380D01*
X59880000Y-39092380D02*
X61960000Y-39092380D01*
X64040000Y-39092380D02*
X66120000Y-39092380D01*
X59891000Y-39052380D02*
X61960000Y-39052380D01*
X64040000Y-39052380D02*
X66109000Y-39052380D01*
X59902000Y-39012380D02*
X61960000Y-39012380D01*
X64040000Y-39012380D02*
X66098000Y-39012380D01*
X59914000Y-38972380D02*
X61960000Y-38972380D01*
X64040000Y-38972380D02*
X66086000Y-38972380D01*
X59927000Y-38932380D02*
X61960000Y-38932380D01*
X64040000Y-38932380D02*
X66073000Y-38932380D01*
X59940000Y-38892380D02*
X61960000Y-38892380D01*
X64040000Y-38892380D02*
X66060000Y-38892380D01*
X59953000Y-38852380D02*
X61960000Y-38852380D01*
X64040000Y-38852380D02*
X66047000Y-38852380D01*
X59968000Y-38812380D02*
X61960000Y-38812380D01*
X64040000Y-38812380D02*
X66032000Y-38812380D01*
X59983000Y-38772380D02*
X61960000Y-38772380D01*
X64040000Y-38772380D02*
X66017000Y-38772380D01*
X59998000Y-38732380D02*
X61960000Y-38732380D01*
X64040000Y-38732380D02*
X66002000Y-38732380D01*
X60014000Y-38692380D02*
X61960000Y-38692380D01*
X64040000Y-38692380D02*
X65986000Y-38692380D01*
X60031000Y-38652380D02*
X61960000Y-38652380D01*
X64040000Y-38652380D02*
X65969000Y-38652380D01*
X60048000Y-38612380D02*
X61960000Y-38612380D01*
X64040000Y-38612380D02*
X65952000Y-38612380D01*
X60066000Y-38572380D02*
X61960000Y-38572380D01*
X64040000Y-38572380D02*
X65934000Y-38572380D01*
X60085000Y-38532380D02*
X61960000Y-38532380D01*
X64040000Y-38532380D02*
X65915000Y-38532380D01*
X60104000Y-38492380D02*
X61960000Y-38492380D01*
X64040000Y-38492380D02*
X65896000Y-38492380D01*
X60124000Y-38452380D02*
X61960000Y-38452380D01*
X64040000Y-38452380D02*
X65876000Y-38452380D01*
X60145000Y-38412380D02*
X61960000Y-38412380D01*
X64040000Y-38412380D02*
X65855000Y-38412380D01*
X60166000Y-38372380D02*
X61960000Y-38372380D01*
X64040000Y-38372380D02*
X65834000Y-38372380D01*
X60188000Y-38332380D02*
X61960000Y-38332380D01*
X64040000Y-38332380D02*
X65812000Y-38332380D01*
X60211000Y-38292380D02*
X61960000Y-38292380D01*
X64040000Y-38292380D02*
X65789000Y-38292380D01*
X60235000Y-38252380D02*
X61960000Y-38252380D01*
X64040000Y-38252380D02*
X65765000Y-38252380D01*
X60259000Y-38212380D02*
X61960000Y-38212380D01*
X64040000Y-38212380D02*
X65741000Y-38212380D01*
X60284000Y-38172380D02*
X61960000Y-38172380D01*
X64040000Y-38172380D02*
X65716000Y-38172380D01*
X60310000Y-38132380D02*
X61960000Y-38132380D01*
X64040000Y-38132380D02*
X65690000Y-38132380D01*
X60337000Y-38092380D02*
X61960000Y-38092380D01*
X64040000Y-38092380D02*
X65663000Y-38092380D01*
X60364000Y-38052380D02*
X61960000Y-38052380D01*
X64040000Y-38052380D02*
X65636000Y-38052380D01*
X60393000Y-38012380D02*
X61960000Y-38012380D01*
X64040000Y-38012380D02*
X65607000Y-38012380D01*
X60423000Y-37972380D02*
X61960000Y-37972380D01*
X64040000Y-37972380D02*
X65577000Y-37972380D01*
X60453000Y-37932380D02*
X61960000Y-37932380D01*
X64040000Y-37932380D02*
X65547000Y-37932380D01*
X60484000Y-37892380D02*
X61960000Y-37892380D01*
X64040000Y-37892380D02*
X65516000Y-37892380D01*
X60517000Y-37852380D02*
X61960000Y-37852380D01*
X64040000Y-37852380D02*
X65483000Y-37852380D01*
X60550000Y-37812380D02*
X61960000Y-37812380D01*
X64040000Y-37812380D02*
X65450000Y-37812380D01*
X60585000Y-37772380D02*
X61960000Y-37772380D01*
X64040000Y-37772380D02*
X65415000Y-37772380D01*
X60621000Y-37732380D02*
X61960000Y-37732380D01*
X64040000Y-37732380D02*
X65379000Y-37732380D01*
X60658000Y-37692380D02*
X61960000Y-37692380D01*
X64040000Y-37692380D02*
X65342000Y-37692380D01*
X60696000Y-37652380D02*
X61960000Y-37652380D01*
X64040000Y-37652380D02*
X65304000Y-37652380D01*
X60736000Y-37612380D02*
X65264000Y-37612380D01*
X60777000Y-37572380D02*
X65223000Y-37572380D01*
X60819000Y-37532380D02*
X65181000Y-37532380D01*
X60863000Y-37492380D02*
X65137000Y-37492380D01*
X60909000Y-37452380D02*
X65091000Y-37452380D01*
X60956000Y-37412380D02*
X65044000Y-37412380D01*
X61005000Y-37372380D02*
X64995000Y-37372380D01*
X61057000Y-37332380D02*
X64943000Y-37332380D01*
X61110000Y-37292380D02*
X64890000Y-37292380D01*
X61166000Y-37252380D02*
X64834000Y-37252380D01*
X61225000Y-37212380D02*
X64775000Y-37212380D01*
X61286000Y-37172380D02*
X64714000Y-37172380D01*
X61351000Y-37132380D02*
X64649000Y-37132380D01*
X61419000Y-37092380D02*
X64581000Y-37092380D01*
X61491000Y-37052380D02*
X64509000Y-37052380D01*
X61568000Y-37012380D02*
X64432000Y-37012380D01*
X61650000Y-36972380D02*
X64350000Y-36972380D01*
X61739000Y-36932380D02*
X64261000Y-36932380D01*
X61835000Y-36892380D02*
X64165000Y-36892380D01*
X61942000Y-36852380D02*
X64058000Y-36852380D01*
X62061000Y-36812380D02*
X63939000Y-36812380D01*
X62199000Y-36772380D02*
X63801000Y-36772380D01*
X62367000Y-36732380D02*
X63633000Y-36732380D01*
X62598000Y-36692380D02*
X63402000Y-36692380D01*
X66270000Y-39932380D02*
G75*
G02*
X59730000Y-39932380I-3270000J0D01*
G01*
X59730000Y-39932380D02*
G75*
G02*
X66270000Y-39932380I3270000J0D01*
G01*
%TD*%
M02*
